#Comment line ignore any data following # character
#Hierarchical Translation and Rotation (.htr) file
[Header]		#Header keywords are followed by a single value
FileType htr		#Single word string
DataType HTRS		#Translation followed by rotation and scale data
FileVersion 1		#integer
NumSegments 18		#integer
NumFrames 7		#integer
DataFrameRate 60		#integer, data frame rate in this file
EulerRotationOrder ZYX
CalibrationUnits mm
RotationUnits Degrees
GlobalAxisofGravity Y
BoneLengthAxis Y
ScaleFactor 1.000000
[SegmentNames&Hierarchy]
#CHILD	PARENT
Head	Neck
Neck	Chest
Chest	Hips
LeftShoulder	LeftCollar
RightShoulder	RightCollar
LeftElbow	LeftShoulder
RightElbow	RightShoulder
LeftWrist	LeftElbow
RightWrist	RightElbow
Hips	GLOBAL
LeftHip	Hips
RightHip	Hips
LeftKnee	LeftHip
RightKnee	RightHip
LeftAnkle	LeftKnee
RightAnkle	RightKnee
LeftCollar	Chest
RightCollar	Chest
[BasePosition]
#SegmentName Tx, Ty, Tz, Rx, Ry, Rz, BoneLength
Head	0.000003	141.966248	0.000002	-37.745777	-8.179454	6.203664	80.000046
Neck	0.000000	379.566772	0.000000	32.855431	-5.194619	1.823337	141.966263
Chest	0.000000	94.891693	0.000000	0.000002	12.877405	-0.000012	379.566803
LeftShoulder	0.000003	154.023666	0.000005	171.957962	-79.977570	-157.094910	215.219986
RightShoulder	-0.000001	146.408707	-0.000001	20.020029	60.865143	-8.207462	240.139038
LeftElbow	0.000007	215.219971	-0.000011	-24.162848	54.442085	-17.491318	336.440125
RightElbow	-0.000021	240.139038	0.000007	-21.925606	-43.617706	23.102211	322.101532
LeftWrist	-0.000014	336.440094	0.000002	173.178864	-0.531422	156.628021	100.348160
RightWrist	0.000005	322.101501	0.000026	1.868945	1.747480	14.125610	109.739998
Hips	377.886597	1077.530640	704.474976	-179.011169	36.455761	-178.006714	94.891701
LeftHip	95.336761	5.238981	-8.336124	-0.485735	-9.415434	-176.117065	525.916443
RightHip	-96.119095	-4.691877	-4.857316	2.457280	-1.423929	-179.125565	528.302429
LeftKnee	0.000004	525.916443	0.000001	-10.646533	-14.541370	-1.855900	514.711975
RightKnee	-0.000002	528.302429	0.000004	-12.768950	2.118825	-3.063609	521.764099
LeftAnkle	0.000003	514.711975	0.000009	97.965164	-0.000001	0.000000	253.446518
RightAnkle	0.000001	521.764099	-0.000002	99.242271	0.000002	0.000000	256.283173
LeftCollar	19.999998	366.483276	-15.126845	169.660507	-4.312743	90.901894	154.023682
RightCollar	-19.999996	366.483215	-15.126822	171.369568	4.171492	-91.645760	146.408707
#Beginning of Data. Separated by tabs
[Head]
#Fr	Tx	Ty	Tz	Rx	Ry	Rz	SF
17	-0.000003	12.834122	0.000005	-12.411119	-3.216627	6.817870	1.000000
18	-0.000007	12.982300	-0.000022	-12.627116	-3.164531	7.111271	0.999999
19	-0.000005	12.581863	0.000002	-12.491802	-3.179380	7.253520	1.000000
20	-0.000008	12.801407	-0.000002	-12.659842	-3.209821	7.184744	0.999999
21	-0.000004	12.834671	-0.000001	-12.691586	-3.243460	7.237640	0.999999
22	-0.000001	13.003052	-0.000004	-12.708624	-3.283974	7.400209	0.999999
23	-0.000002	12.944351	-0.000002	-12.579854	-3.393695	7.255017	0.999999
[Neck]
#Fr	Tx	Ty	Tz	Rx	Ry	Rz	SF
17	0.000001	-11.450165	-0.000004	-1.613475	-0.614755	-3.590790	1.090403
18	-0.000002	-11.370422	-0.000002	-1.681651	-0.604066	-3.780117	1.091446
19	-0.000004	-11.334534	0.000005	-1.835421	-0.581096	-3.961269	1.088626
20	-0.000000	-11.329956	-0.000006	-1.876260	-0.593872	-3.889888	1.090172
21	0.000001	-11.353912	-0.000004	-1.906199	-0.612974	-3.892756	1.090406
22	-0.000000	-11.432983	-0.000011	-1.928898	-0.642746	-3.951399	1.091592
23	-0.000001	-11.524536	-0.000006	-2.004252	-0.680885	-3.820787	1.091179
[Chest]
#Fr	Tx	Ty	Tz	Rx	Ry	Rz	SF
17	-0.000000	-2.862564	-0.000000	-0.000008	-3.128159	0.000015	0.969834
18	-0.000000	-2.842644	-0.000001	-0.000028	-3.246684	0.000015	0.970043
19	-0.000000	-2.833694	0.000001	-0.000001	-3.344941	0.000009	0.970138
20	0.000000	-2.832489	-0.000000	-0.000014	-3.318364	0.000015	0.970150
21	-0.000000	-2.838470	-0.000001	-0.000005	-3.201347	0.000012	0.970087
22	-0.000000	-2.858261	0.000000	0.000013	-3.098086	0.000008	0.969879
23	-0.000000	-2.881187	-0.000001	-0.000032	-2.949585	0.000015	0.969638
[LeftShoulder]
#Fr	Tx	Ty	Tz	Rx	Ry	Rz	SF
17	-0.000001	13.649033	-0.000004	81.588806	34.563381	74.604393	1.244513
18	-0.000010	13.628876	0.000000	81.545639	34.461235	74.447372	1.244965
19	0.000000	13.603546	-0.000009	81.389084	34.327705	74.166687	1.245469
20	-0.000009	13.601639	-0.000003	81.156219	34.173866	73.822533	1.245874
21	-0.000003	13.634506	0.000000	80.867508	34.008530	73.429062	1.246172
22	-0.000010	13.679642	0.000003	80.529015	33.826160	73.008873	1.246346
23	-0.000008	13.673706	-0.000023	80.160934	33.658337	72.564880	1.246540
[RightShoulder]
#Fr	Tx	Ty	Tz	Rx	Ry	Rz	SF
17	-0.000003	11.302155	0.000001	54.381489	-44.639885	-77.592957	1.128810
18	0.000011	11.382233	-0.000000	54.415115	-44.571533	-77.519409	1.128590
19	-0.000003	11.498550	-0.000002	54.329536	-44.417229	-77.309959	1.128436
20	0.000001	11.639450	-0.000008	54.164009	-44.209846	-77.038994	1.128252
21	-0.000005	11.793228	0.000001	53.902267	-43.930630	-76.676186	1.127974
22	0.000002	11.978882	-0.000003	53.569824	-43.603180	-76.253342	1.127662
23	0.000001	12.195908	-0.000005	53.196419	-43.258011	-75.814766	1.127484
[LeftElbow]
#Fr	Tx	Ty	Tz	Rx	Ry	Rz	SF
17	-0.000011	52.624115	0.000024	-7.720780	-29.672997	6.857122	0.940375
18	-0.000008	52.721405	0.000004	-7.812375	-29.785292	6.917017	0.940383
19	0.000001	52.829956	0.000024	-7.835268	-29.831646	6.938511	0.940267
20	-0.000009	52.916962	0.000017	-7.822827	-29.898544	6.943408	0.940243
21	-0.000006	52.981171	-0.000014	-7.778124	-29.981522	6.935059	0.940240
22	-0.000030	53.018677	0.000012	-7.670043	-30.010103	6.893882	0.940085
23	-0.000011	53.060333	0.000000	-7.576792	-30.108583	6.874939	0.939963
[RightElbow]
#Fr	Tx	Ty	Tz	Rx	Ry	Rz	SF
17	0.000027	30.932312	-0.000014	-7.828773	31.482424	-3.259166	0.981541
18	0.000036	30.879486	-0.000012	-7.955272	31.794664	-3.357070	0.981955
19	0.000016	30.842438	0.000003	-8.094626	32.158546	-3.478473	0.982339
20	0.000012	30.798279	-0.000016	-8.229402	32.531918	-3.607399	0.982828
21	0.000015	30.731537	-0.000009	-8.369408	32.898815	-3.733526	0.983406
22	0.000020	30.656616	-0.000022	-8.530569	33.290947	-3.868104	0.984015
23	0.000023	30.613831	-0.000016	-8.688887	33.671856	-4.002008	0.984508
[LeftWrist]
#Fr	Tx	Ty	Tz	Rx	Ry	Rz	SF
17	0.000006	-20.060120	-0.000004	103.430763	-84.130478	-108.866341	1.036744
18	-0.000001	-20.057465	-0.000003	103.521843	-84.143326	-108.905144	1.036032
19	0.000006	-20.096680	0.000014	103.573921	-84.118599	-108.923859	1.035493
20	0.000009	-20.104462	0.000001	103.613754	-84.138008	-108.916687	1.034765
21	0.000019	-20.105743	-0.000043	103.576668	-84.140503	-108.851646	1.034000
22	0.000014	-20.157867	0.000007	103.470551	-84.058876	-108.808609	1.034086
23	0.000020	-20.198883	-0.000039	103.325523	-83.989769	-108.740189	1.033740
[RightWrist]
#Fr	Tx	Ty	Tz	Rx	Ry	Rz	SF
17	0.000009	-5.945618	-0.000024	-105.555534	83.730797	-100.825043	0.987167
18	0.000016	-5.812347	-0.000005	-105.506523	83.557671	-100.650635	0.988237
19	-0.000019	-5.688721	-0.000044	-105.218491	83.358345	-100.315247	0.988371
20	-0.000011	-5.531036	-0.000017	-105.012497	83.162285	-100.019905	0.988530
21	-0.000006	-5.344971	-0.000057	-104.745789	82.970657	-99.711281	0.988256
22	-0.000015	-5.148773	-0.000035	-104.378601	82.783180	-99.341835	0.987484
23	-0.000010	-4.989990	-0.000051	-104.044960	82.612320	-99.025383	0.986395
[Hips]
#Fr	Tx	Ty	Tz	Rx	Ry	Rz	SF
17	-1133.236328	17.915771	-552.501648	37.745884	-82.871880	-27.052002	0.969833
18	-1134.296143	17.638062	-551.374084	37.593544	-82.782059	-26.787313	0.970043
19	-1135.156128	17.382813	-550.550476	37.334381	-82.706772	-26.434917	0.970138
20	-1135.814087	17.109741	-549.877808	37.379993	-82.690727	-26.423498	0.970150
21	-1136.212158	16.817017	-549.236389	37.577187	-82.695938	-26.610725	0.970087
22	-1136.472656	16.564941	-548.832764	37.514317	-82.670662	-26.552803	0.969879
23	-1136.563232	16.311646	-548.630859	37.504738	-82.667053	-26.569984	0.969637
[LeftHip]
#Fr	Tx	Ty	Tz	Rx	Ry	Rz	SF
17	1.253532	-4.063786	3.219905	18.368145	-0.404364	5.283106	1.007313
18	1.240891	-4.121978	3.308518	18.490408	-0.460563	5.307027	1.008067
19	1.317596	-4.158865	3.397509	18.599655	-0.450071	5.284005	1.008616
20	1.267471	-4.188181	3.421535	18.660303	-0.489994	5.251086	1.008884
21	1.110008	-4.196473	3.409493	18.706161	-0.543416	5.295667	1.008398
22	1.102051	-4.203565	3.378479	18.742022	-0.555621	5.317173	1.008011
23	1.084625	-4.195818	3.392337	18.743998	-0.558777	5.356307	1.007869
[RightHip]
#Fr	Tx	Ty	Tz	Rx	Ry	Rz	SF
17	0.496414	2.080021	-4.747255	15.936080	0.947226	-5.240998	1.010765
18	0.503731	2.133749	-4.637643	16.144934	0.944030	-5.160593	1.011044
19	0.449829	2.156671	-4.665219	16.346907	0.935459	-5.110829	1.011376
20	0.477470	2.190180	-4.531962	16.609734	0.913832	-5.035537	1.010935
21	0.629524	2.192953	-4.516949	16.775496	0.916837	-4.948621	1.010559
22	0.632683	2.190021	-4.522472	16.924496	0.895500	-4.909513	1.010249
23	0.665955	2.174795	-4.585685	16.986055	0.901997	-4.902387	1.010469
[LeftKnee]
#Fr	Tx	Ty	Tz	Rx	Ry	Rz	SF
17	0.000009	3.846191	0.000018	-14.329164	-2.347006	5.536589	0.971296
18	0.000003	4.242371	-0.000017	-14.266611	-2.217565	5.593381	0.969989
19	-0.000005	4.531372	0.000003	-14.218815	-2.171767	5.706603	0.968713
20	-0.000009	4.672180	-0.000008	-14.158079	-2.119187	5.845725	0.967889
21	0.000003	4.416443	-0.000023	-14.191554	-2.089034	5.888599	0.968180
22	-0.000007	4.213135	-0.000014	-14.230879	-2.061052	5.913637	0.968411
23	0.000008	4.138306	0.000015	-14.301366	-2.054122	5.905999	0.968282
[RightKnee]
#Fr	Tx	Ty	Tz	Rx	Ry	Rz	SF
17	0.000009	5.687439	-0.000019	-13.023056	12.361661	-0.039785	0.993704
18	-0.000003	5.834473	0.000007	-13.238075	12.474105	-0.066946	0.993526
19	0.000002	6.010010	0.000007	-13.454147	12.573581	-0.099848	0.993372
20	0.000009	5.777100	0.000000	-13.840646	12.609429	-0.249463	0.994603
21	0.000002	5.578491	-0.000001	-14.121552	12.579229	-0.392055	0.995499
22	-0.000002	5.414429	-0.000004	-14.422020	12.625644	-0.497981	0.996444
23	-0.000009	5.530823	-0.000001	-14.604490	12.597332	-0.528054	0.996422
[LeftAnkle]
#Fr	Tx	Ty	Tz	Rx	Ry	Rz	SF
17	-0.000015	-14.774353	0.000027	1.791884	-0.000001	-0.000001	1.032196
18	-0.000001	-15.446838	-0.000015	1.784708	-0.000001	-0.000001	1.032427
19	0.000001	-16.104034	0.000014	1.754805	-0.000000	-0.000001	1.032853
20	0.000002	-16.528168	0.000013	1.732974	-0.000001	-0.000001	1.032789
21	-0.000001	-16.378387	0.000002	1.712761	-0.000001	-0.000001	1.032598
22	-0.000001	-16.259216	0.000027	1.728187	-0.000001	-0.000001	1.032529
23	-0.000002	-16.325836	0.000001	1.754811	-0.000000	-0.000001	1.032839
[RightAnkle]
#Fr	Tx	Ty	Tz	Rx	Ry	Rz	SF
17	0.000007	-3.285034	-0.000003	3.139245	0.000001	0.000001	0.999729
18	-0.000001	-3.378052	-0.000017	3.242104	-0.000000	0.000003	0.999798
19	-0.000002	-3.458008	-0.000012	3.331290	0.000001	0.000002	0.999609
20	-0.000003	-2.816040	0.000012	3.491274	-0.000000	0.000002	0.999633
21	-0.000007	-2.348267	0.000020	3.619761	0.000000	0.000005	0.999495
22	-0.000026	-1.855286	0.000001	3.762116	-0.000001	0.000002	0.999374
23	-0.000014	-1.866943	-0.000030	3.863007	-0.000000	0.000001	0.999366
[LeftCollar]
#Fr	Tx	Ty	Tz	Rx	Ry	Rz	SF
17	0.000013	-11.210968	-0.203583	-0.708728	0.010781	10.431617	1.088616
18	-0.000002	-11.151062	-0.187021	-0.591116	-0.076970	10.441813	1.088485
19	0.000008	-11.122345	-0.180982	-0.499658	-0.116032	10.459626	1.088321
20	-0.000002	-11.106873	-0.190156	-0.475134	-0.078631	10.453725	1.088309
21	0.000002	-11.100922	-0.215210	-0.526792	0.040769	10.420547	1.088522
22	-0.000011	-11.138580	-0.249754	-0.627733	0.208606	10.374166	1.088815
23	-0.000004	-11.177521	-0.293319	-0.783079	0.424368	10.316047	1.088777
[RightCollar]
#Fr	Tx	Ty	Tz	Rx	Ry	Rz	SF
17	-0.000004	-11.210999	-0.203590	-4.500628	-0.542350	-11.984020	1.077196
18	-0.000011	-11.151001	-0.187041	-4.633219	-0.491405	-11.924068	1.077743
19	-0.000013	-11.122314	-0.181017	-4.750344	-0.486251	-11.847363	1.078537
20	-0.000002	-11.106842	-0.190163	-4.821044	-0.540974	-11.770159	1.079500
21	0.000000	-11.100830	-0.215218	-4.831035	-0.656156	-11.713791	1.080550
22	-0.000006	-11.138489	-0.249777	-4.810030	-0.809058	-11.650342	1.081818
23	0.000010	-11.177551	-0.293285	-4.767323	-0.999475	-11.587893	1.083300
[EndOfFile]
